<?xml version="1.0" standalone="no"?>
<!DOCTYPE svg PUBLIC "-//W3C//DTD SVG 20010904//EN"
 "http://www.w3.org/TR/2001/REC-SVG-20010904/DTD/svg10.dtd">
<svg version="1.0" xmlns="http://www.w3.org/2000/svg"
 width="501.000000pt" height="501.000000pt" viewBox="0 0 501.000000 501.000000"
 preserveAspectRatio="xMidYMid meet">
<metadata>
Created by potrace 1.14, written by Peter Selinger 2001-2017
</metadata>
<g transform="translate(0.000000,501.000000) scale(0.100000,-0.100000)"
fill="#000000" stroke="none">
<path d="M3472 4260 c-174 -25 -370 -109 -532 -230 -175 -131 -371 -342 -508
-548 -67 -99 -108 -170 -101 -175 2 -2 38 -20 79 -41 41 -20 116 -66 165 -101
50 -36 93 -65 97 -65 3 0 23 30 44 68 20 37 68 112 105 167 218 321 455 487
719 502 94 5 210 -9 210 -27 0 -5 -21 -32 -46 -62 -79 -91 -183 -257 -259
-413 -144 -295 -237 -572 -349 -1039 -7 -28 -11 -23 -70 90 -211 402 -443 658
-702 774 -203 92 -443 93 -656 4 -59 -24 -208 -110 -208 -120 0 -2 52 -81 115
-174 l116 -169 57 40 c69 49 169 80 259 82 66 2 68 1 65 -22 -4 -44 -92 -238
-164 -363 -150 -263 -348 -528 -511 -685 -159 -154 -261 -207 -393 -207 -84 1
-144 28 -182 84 -20 30 -23 44 -20 97 3 53 9 68 33 94 34 35 82 59 120 59 l25
0 0 211 0 211 -68 -7 c-149 -16 -274 -77 -376 -185 -302 -321 -144 -845 289
-955 69 -17 205 -20 291 -4 454 80 917 560 1264 1311 25 54 48 98 52 98 4 0
50 -64 102 -143 107 -159 222 -379 284 -538 38 -98 92 -279 92 -306 0 -7 -18
-13 -42 -15 l-43 -3 0 -205 0 -205 355 0 355 0 3 198 2 197 -61 0 -61 0 7 68
c80 804 283 1454 588 1882 84 118 264 295 351 345 l69 39 -59 53 c-158 142
-374 264 -546 307 -109 28 -262 39 -356 26z"/>
</g>
</svg>
